:SAMPLES-PER-SECOND 30
:FRAME-RANGE 1-1700
:FULLY-SPECIFIED
:DEGREES
213
root  -42.9163 40.2579 3.43003 165.735 69.4255 177.771
RightUpLeg  -0.289142 -3.25296 3.69243
RightLeg  39.5757 5.73043 4.78408
RightFoot  -0.748692 -0.169637 1.77404
RightToes  6.35937e-011 1.2921e-014 -6.02303e-014
Spine  18.4409 0.0371899 1.86868
Spine1  -2.64174 -1.91572 3.69327
HEad  19.6261 3.14378 -4.46121
LeftShoulder1  2.85692 -12.2459 -11.4332
LeftArm  32.3949 -38.6707 -81.1823
LeftForeArm  57.3269 -0.799774 -15.8394
LeftHand  -0.259791 10.8442 -4.07686
RightShoulder  2.63819 6.91277 19.4861
RightArm  -7.62272 30.4567 74.2496
RightForeArm  93.116 -5.06677 8.18325
RightHand  0.212386 -8.65039 -8.75852
LeftUpLeg  -94.6669 9.80736 -58.248
LeftLeg  117.456 2.62265 -5.20596
LeftFoot  -20.0489 -1.08243 -15.7049
LeftToes  -1.9349e-011 5.45182e-011 1.33515e-010
214
root  -42.4979 40.428 3.2609 162.944 69.1676 176.174
RightUpLeg  2.10886 -5.42427 3.6275
RightLeg  34.3025 -3.50444 -2.82323
RightFoot  -7.67596 -0.116321 2.00599
RightToes  6.35937e-011 1.2921e-014 -6.02303e-014
Spine  19.253 0.509641 1.93298
Spine1  -2.9403 -1.25038 2.95998
HEad  19.8164 2.12322 -4.27113
LeftShoulder1  2.77957 -12.003 -11.1973
LeftArm  32.4592 -39.346 -83.2826
LeftForeArm  58.935 -1.08481 -15.6331
LeftHand  -0.261142 11.0948 -3.89997
RightShoulder  2.80815 7.4007 19.9341
RightArm  -8.46318 30.845 72.1749
RightForeArm  91.4724 -5.10629 7.9553
RightHand  0.241737 -8.58393 -9.92735
LeftUpLeg  -93.9571 8.83402 -56.8152
LeftLeg  115.025 2.62815 -5.7528
LeftFoot  -21.1007 -1.15023 -14.8784
LeftToes  -1.9349e-011 5.45182e-011 1.33515e-010
215
root  -42.1708 40.1574 3.07494 159.001 70.4901 172.354
RightUpLeg  3.28727 -6.39386 2.40624
RightLeg  27.2271 -3.52625 -2.19899
RightFoot  -18.5045 -0.0297008 1.52673
RightToes  6.35937e-011 1.2921e-014 -6.02303e-014
Spine  20.2644 1.40108 2.79061
Spine1  -3.5902 0.210445 0.681255
HEad  18.7596 0.944786 -4.20448
LeftShoulder1  2.67158 -11.5802 -10.9663
LeftArm  31.6205 -40.291 -85.6951
LeftForeArm  63.1739 -0.185271 -15.4489
LeftHand  -0.273014 11.7053 -3.67736
RightShoulder  2.92516 7.8203 20.0049
RightArm  -10.0035 31.6973 71.3322
RightForeArm  91.5527 -4.9282 6.86945
RightHand  0.222642 -8.20732 -10.3851
LeftUpLeg  -95.1442 8.54537 -56.3997
LeftLeg  112.755 0.947083 -2.722
LeftFoot  -22.0422 -1.15952 -13.7327
LeftToes  -1.9349e-011 5.45182e-011 1.33515e-010
216
root  -41.9475 39.4691 2.90093 154.388 72.7314 167.825
RightUpLeg  1.67798 -4.25958 2.34184
RightLeg  24.968 -4.43783 -2.47589
RightFoot  -21.6063 -0.112153 0.379832
RightToes  6.35937e-011 1.2921e-014 -6.02303e-014
Spine  21.9638 2.09673 4.27146
Spine1  -4.33307 1.6651 -1.86456
HEad  16.0159 0.456714 -4.97737
LeftShoulder1  2.63088 -11.1657 -11.2268
LeftArm  29.3621 -40.7639 -86.1657
LeftForeArm  66.1468 -0.520067 -14.9814
LeftHand  -0.298872 12.1668 -3.81197
RightShoulder  3.02282 8.5189 19.2247
RightArm  -10.9655 33.0021 71.8754
RightForeArm  91.8676 -4.7399 5.79829
RightHand  0.20573 -7.96933 -10.5364
LeftUpLeg  -97.2122 9.22181 -55.9422
LeftLeg  110.946 -0.329909 0.0634976
LeftFoot  -22.71 -1.0513 -11.8925
LeftToes  -1.9349e-011 5.45182e-011 1.33515e-010
217
root  -41.6336 38.582 2.74974 151.387 73.5239 165.621
RightUpLeg  -0.218771 -3.15683 2.36432
RightLeg  26.9994 -6.63322 -3.89021
RightFoot  -20.0808 -0.307477 -2.24612
RightToes  6.35937e-011 1.2921e-014 -6.02303e-014
Spine  22.8971 2.04907 4.38935
Spine1  -3.75533 1.64459 -1.70326
HEad  12.0599 0.948727 -6.28498
LeftShoulder1  2.51251 -10.966 -10.5885
LeftArm  26.9956 -40.9875 -85.8686
LeftForeArm  67.6336 -1.46889 -14.4332
LeftHand  -0.322506 12.4781 -3.98987
RightShoulder  3.0519 9.00027 18.4006
RightArm  -10.6472 34.6286 73.3313
RightForeArm  92.838 -4.6042 5.24223
RightHand  0.215728 -7.95737 -11.0026
LeftUpLeg  -97.2255 10.2988 -54.9639
LeftLeg  109.804 -0.555398 0.6405
LeftFoot  -24.0495 -1.11367 -11.2652
LeftToes  -1.9349e-011 5.45182e-011 1.33515e-010
218
root  -41.3698 37.1205 2.58958 150.556 73.762 166.971
RightUpLeg  -4.31682 -2.854 3.46521
RightLeg  39.9325 -7.27371 -6.75819
RightFoot  -20.1881 -0.661095 -6.77309
RightToes  6.35937e-011 1.2921e-014 -6.02303e-014
Spine  24.717 1.81641 4.36392
Spine1  -2.82527 1.31419 -0.592386
HEad  8.31526 1.24283 -7.77417
LeftShoulder1  2.3727 -10.862 -9.63357
LeftArm  24.3336 -41.6268 -86.2508
LeftForeArm  69.2681 -0.906703 -14.0612
LeftHand  -0.331987 12.5428 -4.09591
RightShoulder  2.99559 8.87567 18.1737
RightArm  -9.49478 35.1905 73.6762
RightForeArm  92.0469 -4.73811 5.838
RightHand  0.232755 -8.02852 -11.4343
LeftUpLeg  -96.7595 11.4311 -54.3414
LeftLeg  110 -1.23467 2.31329
LeftFoot  -24.8595 -1.01603 -9.81135
LeftToes  -1.9349e-011 5.45182e-011 1.33515e-010
219
root  -40.9764 35.8177 2.39752 152.251 72.9642 169.889
RightUpLeg  -6.75452 -6.84573 2.78793
RightLeg  48.7912 -4.7937 -6.18273
RightFoot  -25.0485 -0.88772 -5.9682
RightToes  6.35937e-011 1.2921e-014 -6.02303e-014
Spine  24.398 1.17459 3.82628
Spine1  -0.689619 0.436421 0.685664
HEad  5.94642 1.72505 -7.54248
LeftShoulder1  2.3825 -11.52 -8.87457
LeftArm  24.1366 -41.7138 -85.791
LeftForeArm  70.664 -0.05866 -14.1797
LeftHand  -0.307762 12.4825 -3.75586
RightShoulder  2.97607 8.51264 18.8115
RightArm  -9.08351 35.1418 73.5052
RightForeArm  92.2875 -4.7737 6.12488
RightHand  0.325697 -8.70547 -12.3641
LeftUpLeg  -95.3581 12.0901 -54.6753
LeftLeg  111.037 -2.40466 4.93036
LeftFoot  -25.6235 -0.913357 -8.50536
LeftToes  -1.9349e-011 5.45182e-011 1.33515e-010
220
root  -40.3883 34.8593 2.3617 154.28 72.0275 172.13
RightUpLeg  -8.25051 -8.46873 3.11039
RightLeg  54.6225 -4.16346 -6.68675
RightFoot  -29.3767 -1.07462 -5.50964
RightToes  6.35937e-011 1.2921e-014 -6.02303e-014
Spine  23.8009 1.19212 2.46616
Spine1  -0.478102 -0.240272 2.40665
HEad  5.57708 1.67707 -6.08497
LeftShoulder1  2.50365 -12.0332 -9.15402
LeftArm  24.7302 -41.5775 -85.1467
LeftForeArm  70.3404 1.49395 -14.5691
LeftHand  -0.327325 12.2102 -4.24775
RightShoulder  2.96749 8.11974 19.6637
RightArm  -8.77202 34.077 73.4502
RightForeArm  92.5788 -4.84791 6.66554
RightHand  0.344724 -9.04438 -11.8795
LeftUpLeg  -94.6357 12.7098 -54.9032
LeftLeg  114.095 -3.4994 6.47759
LeftFoot  -25.7429 -0.823465 -7.73167
LeftToes  -1.9349e-011 5.45182e-011 1.33515e-010
221
root  -39.8588 34.0957 2.32361 155.938 71.9227 173.506
RightUpLeg  -9.6906 -9.12394 3.76108
RightLeg  58.9693 -3.71247 -7.1176
RightFoot  -32.5647 -1.21449 -5.29491
RightToes  6.35937e-011 1.2921e-014 -6.02303e-014
Spine  23.6272 1.0107 2.26422
Spine1  -0.311982 -0.362872 2.12942
HEad  3.417 0.944375 -4.17211
LeftShoulder1  2.53359 -12.1545 -9.22669
LeftArm  24.6703 -41.3099 -84.7433
LeftForeArm  70.9779 2.33036 -14.6797
LeftHand  -0.379282 11.9496 -5.31852
RightShoulder  3.01224 8.17493 19.9497
RightArm  -8.55339 32.3921 74.004
RightForeArm  91.8801 -4.96863 7.21388
RightHand  0.348148 -9.03062 -12.0235
LeftUpLeg  -94.906 12.9916 -54.2037
LeftLeg  117.592 -3.88209 6.23404
LeftFoot  -26.2072 -0.711803 -6.65674
LeftToes  -1.9349e-011 5.45182e-011 1.33515e-010
222
root  -39.2825 33.8851 2.32719 158.566 71.2041 175.287
RightUpLeg  -9.9957 -10.9541 4.01127
RightLeg  59.8775 -3.21145 -6.46694
RightFoot  -34.1553 -1.36131 -5.58822
RightToes  6.35937e-011 1.2921e-014 -6.02303e-014
Spine  22.802 0.814977 1.68193
Spine1  -0.122148 -0.753399 2.59825
HEad  0.637124 0.153979 -3.21251
LeftShoulder1  2.59664 -12.5982 -9.15658
LeftArm  25.944 -40.6094 -84.1225
LeftForeArm  70.895 2.01963 -14.9306
LeftHand  -0.410667 11.922 -5.87636
RightShoulder  3.1011 8.04047 21.1244
RightArm  -9.20372 30.9251 73.6687
RightForeArm  91.3882 -4.99906 7.26221
RightHand  0.386555 -9.30495 -12.323
LeftUpLeg  -94.374 13.0752 -53.239
LeftLeg  119.623 -4.7602 7.14368
LeftFoot  -26.507 -0.530023 -5.17517
LeftToes  -1.9349e-011 5.45182e-011 1.33515e-010
223
root  -38.6686 34.0415 2.33302 160.56 70.3413 176.238
RightUpLeg  -9.44077 -12.5073 4.02529
RightLeg  58.7533 -2.99191 -5.78961
RightFoot  -34.6317 -1.50092 -6.13024
RightToes  6.35937e-011 1.2921e-014 -6.02303e-014
Spine  22.0924 0.902025 0.794021
Spine1  -0.585486 -0.947281 3.29152
HEad  -1.27369 -0.597119 -2.70609
LeftShoulder1  2.64649 -12.7019 -9.38552
LeftArm  27.3812 -39.9556 -84.1213
LeftForeArm  70.6063 2.06616 -15.1728
LeftHand  -0.410141 11.9018 -5.88736
RightShoulder  3.07307 7.63838 21.9216
RightArm  -9.7021 29.7621 73.0146
RightForeArm  91.3451 -5.01026 7.31948
RightHand  0.404022 -9.43529 -12.4301
LeftUpLeg  -94.2449 12.7429 -53.6797
LeftLeg  120.027 -7.13757 10.7239
LeftFoot  -26.217 -0.254622 -3.15656
LeftToes  -1.9349e-011 5.45182e-011 1.33515e-010
224
root  -38.0347 34.5741 2.33559 161.883 69.9485 176.209
RightUpLeg  -8.17787 -13.2122 4.00676
RightLeg  55.445 -3.00065 -5.10067
RightFoot  -33.8563 -1.54597 -6.59956
RightToes  6.35937e-011 1.2921e-014 -6.02303e-014
Spine  21.0323 1.01952 0.144669
Spine1  -1.10529 -0.886606 3.0811
HEad  -2.5818 -1.33163 -1.2589
LeftShoulder1  2.71512 -12.7252 -9.83615
LeftArm  29.156 -39.5517 -83.3844
LeftForeArm  67.8062 1.61714 -15.4884
LeftHand  -0.397842 11.6682 -5.90904
RightShoulder  3.03698 7.5289 21.8681
RightArm  -9.75645 29.3947 73.32
RightForeArm  91.9502 -4.97956 7.30193
RightHand  0.404665 -9.40417 -12.5365
LeftUpLeg  -95.0553 12.3317 -55.0871
LeftLeg  119.685 -7.87245 12.0026
LeftFoot  -26.5398 -0.216142 -2.81526
LeftToes  -1.9349e-011 5.45182e-011 1.33515e-010
225
root  -37.2534 35.5011 2.28126 163.473 69.3487 176.364
RightUpLeg  -5.47271 -14.7093 3.52192
RightLeg  49.4707 -2.51833 -3.50502
RightFoot  -31.5922 -1.50382 -7.20681
RightToes  6.35937e-011 1.2921e-014 -6.02303e-014
Spine  19.4441 1.04615 -0.831583
Spine1  -2.17884 -1.15025 3.64024
HEad  -1.62366 -2.04223 -0.556431
LeftShoulder1  2.79128 -12.5776 -10.5461
LeftArm  30.4294 -38.41 -82.3506
LeftForeArm  65.536 0.811514 -15.6916
LeftHand  -0.368287 11.5973 -5.4547
RightShoulder  3.03742 7.47092 22.0329
RightArm  -10.1547 29.164 73.3041
RightForeArm  93.4265 -4.87189 7.0571
RightHand  0.400441 -9.37154 -12.515
LeftUpLeg  -95.6966 11.3878 -56.1798
LeftLeg  119.382 -6.17381 9.47448
LeftFoot  -27.045 -0.4011 -4.0861
LeftToes  -1.9349e-011 5.45182e-011 1.33515e-010
